<?xml version="1.0" standalone="no"?>
<!DOCTYPE svg PUBLIC "-//W3C//DTD SVG 20010904//EN"
 "http://www.w3.org/TR/2001/REC-SVG-20010904/DTD/svg10.dtd">
<svg version="1.0" xmlns="http://www.w3.org/2000/svg"
 width="130.000000pt" height="130.000000pt" viewBox="0 0 130.000000 130.000000"
 preserveAspectRatio="xMidYMid meet">

<g transform="translate(0.000000,130.000000) scale(0.100000,-0.100000)"
fill="#000000" stroke="none">
<path d="M81 1282 c-19 -9 -44 -30 -55 -45 -21 -28 -21 -38 -21 -587 0 -549 0
-559 21 -587 47 -64 34 -63 624 -63 590 0 577 -1 624 63 21 28 21 38 21 587 0
549 0 559 -21 587 -47 64 -34 63 -624 63 -490 0 -538 -2 -569 -18z m649 -204
c0 -3 -6 -8 -12 -11 -7 -2 -5 -3 5 -2 9 2 17 -1 17 -5 0 -5 19 -11 43 -15 66
-11 138 -42 180 -76 20 -17 37 -34 37 -38 0 -5 -21 -11 -46 -15 -25 -3 -69
-13 -98 -21 l-53 -16 -6 -82 c-3 -48 -14 -106 -27 -139 -25 -67 -30 -68 -136
-42 -46 12 -76 27 -100 49 -38 36 -40 43 -19 71 13 16 14 16 9 1 -9 -25 4 -67
20 -67 12 0 46 40 46 54 0 3 -15 3 -32 1 l-33 -5 35 13 c28 9 34 17 32 35 -2
12 -8 22 -15 22 -6 0 4 16 23 35 24 24 37 32 46 25 22 -19 80 18 109 68 6 11
3 12 -14 2 -12 -6 -26 -21 -31 -33 -5 -12 -9 -16 -9 -8 -1 10 -8 8 -25 -8 -31
-29 -39 -15 -20 38 19 55 7 94 -41 141 -34 33 -34 34 -13 48 11 8 37 23 57 33
l36 17 17 -31 c9 -18 17 -35 18 -39z m-558 -510 c-10 -22 -11 -21 -11 12 -1
26 2 31 11 22 8 -8 8 -17 0 -34z m58 1 c0 -11 -4 -19 -10 -19 -5 0 -10 5 -10
11 0 8 -6 7 -17 -2 -14 -12 -15 -12 -10 1 4 8 10 23 13 33 5 13 10 15 20 6 8
-6 14 -20 14 -30z m235 1 c1 -11 -2 -20 -7 -20 -4 0 -8 8 -9 18 0 14 -2 14 -9
-3 -8 -18 -9 -18 -9 6 -1 14 2 29 6 33 10 9 26 -10 28 -34z m-205 10 c-13 -9
-13 -11 0 -20 13 -8 12 -10 -2 -10 -11 0 -18 8 -18 20 0 12 7 20 18 20 14 0
15 -2 2 -10z m80 -11 c0 -23 -28 -25 -37 -2 -6 15 -7 15 -14 -3 -7 -18 -8 -18
-8 2 -1 17 5 21 29 22 23 0 30 -4 30 -19z m80 1 c0 -14 -8 -18 -37 -18 -36 0
-36 1 -18 15 16 13 17 15 3 10 -10 -4 -18 -2 -18 2 0 5 16 9 35 9 27 0 35 -4
35 -18z m-180 -53 c0 -7 -11 -13 -27 -12 -39 0 -39 -20 2 -43 40 -24 46 -55
14 -72 -24 -13 -61 -10 -66 7 -3 7 8 10 28 10 44 -3 46 17 4 41 -38 23 -46 54
-17 71 24 15 62 13 62 -2z m139 -13 c26 -34 27 -64 1 -97 -11 -14 -20 -28 -20
-31 0 -3 9 -6 20 -6 11 0 20 -4 20 -10 0 -13 -37 -13 -45 0 -4 6 -22 17 -41
25 -20 8 -38 25 -44 40 -29 77 60 141 109 79z m94 -102 c42 -5 32 -24 -10 -20
l-38 3 -3 59 c-4 84 11 107 18 26 5 -62 6 -65 33 -68z m174 112 c2 -7 -5 -10
-20 -7 -40 8 -44 -17 -8 -46 33 -27 39 -49 19 -69 -16 -16 -53 -15 -68 3 -10
12 -6 13 24 8 46 -7 49 16 6 47 -32 23 -38 48 -18 68 15 15 60 12 65 -4z m103
-43 c17 -33 12 -41 -26 -41 -24 0 -34 -4 -31 -12 2 -7 16 -13 31 -13 30 1 30
-18 -1 -23 -26 -4 -53 23 -53 53 0 48 59 74 80 36z m86 8 c3 -5 -1 -9 -9 -9
-18 0 -27 -21 -27 -61 0 -16 -4 -29 -10 -29 -5 0 -10 24 -10 54 0 51 1 54 25
54 14 0 28 -4 31 -9z m42 -30 l18 -42 12 42 c7 22 17 41 23 41 11 0 6 -20 -17
-77 -16 -36 -30 -35 -45 3 -28 75 -20 103 9 33z m146 25 c27 -27 20 -44 -20
-44 -24 0 -34 -4 -31 -12 2 -7 16 -13 30 -13 15 1 27 -3 27 -7 0 -16 -31 -21
-56 -10 -41 19 -25 102 21 102 7 0 21 -7 29 -16z m96 7 c3 -1 -5 -6 -17 -11
-18 -7 -23 -17 -23 -44 0 -19 -4 -38 -10 -41 -6 -4 -10 15 -10 49 0 54 0 55
28 52 15 -2 29 -5 32 -5z"/>
<path d="M667 1123 c-24 -6 -11 -23 18 -23 18 0 23 4 19 15 -6 16 -7 16 -37 8z"/>
<path d="M651 1083 c13 -15 35 -17 43 -4 3 5 -8 11 -24 13 -24 4 -27 2 -19 -9z"/>
<path d="M615 1080 c3 -5 11 -10 16 -10 6 0 7 5 4 10 -3 6 -11 10 -16 10 -6 0
-7 -4 -4 -10z"/>
<path d="M660 1035 c0 -8 4 -15 9 -15 5 0 14 7 21 15 10 13 9 15 -9 15 -12 0
-21 -6 -21 -15z"/>
<path d="M696 1021 c-16 -17 -16 -19 4 -24 16 -4 20 0 20 19 0 29 -2 29 -24 5z"/>
<path d="M730 1026 c0 -22 19 -30 36 -15 8 6 17 9 20 6 3 -3 -4 -11 -16 -17
-21 -11 -21 -12 -3 -25 16 -12 20 -11 30 8 17 30 16 32 -12 45 -35 16 -55 15
-55 -2z"/>
<path d="M812 990 c-9 -24 -7 -33 11 -56 l21 -27 28 34 c38 45 35 52 -12 33
-23 -9 -43 -14 -46 -11 -3 3 11 10 30 17 41 13 46 25 14 34 -34 9 -35 8 -46
-24z"/>
<path d="M680 968 c0 -17 2 -18 15 -8 8 7 15 14 15 15 0 2 -7 5 -15 9 -10 4
-15 -1 -15 -16z"/>
<path d="M904 968 c-4 -7 -14 -22 -21 -34 -13 -20 -12 -20 42 -11 l55 10 -22
24 c-24 26 -43 29 -54 11z"/>
<path d="M721 944 c-13 -29 -4 -30 28 -5 23 17 23 18 3 23 -14 4 -23 -1 -31
-18z"/>
<path d="M696 941 c-10 -10 -13 -22 -8 -25 5 -3 14 6 20 19 14 30 11 31 -12 6z"/>
<path d="M773 918 c-38 -43 -36 -48 12 -31 44 15 45 16 29 34 -21 23 -17 23
-41 -3z"/>
<path d="M665 900 c-3 -5 -1 -10 4 -10 6 0 11 5 11 10 0 6 -2 10 -4 10 -3 0
-8 -4 -11 -10z"/>
<path d="M760 856 c0 -2 7 -6 15 -10 8 -3 15 -1 15 4 0 6 -7 10 -15 10 -8 0
-15 -2 -15 -4z"/>
<path d="M735 835 c-3 -8 -7 -22 -10 -30 -6 -20 5 -19 34 4 l24 19 -22 11
c-17 10 -22 9 -26 -4z"/>
<path d="M691 831 c-12 -8 -12 -12 -2 -25 16 -19 31 -12 31 15 0 21 -7 23 -29
10z"/>
<path d="M660 813 c0 -5 -10 -19 -21 -33 -20 -24 -20 -24 -9 -2 13 27 9 35
-14 26 -22 -9 -20 -41 4 -49 10 -3 33 1 50 10 31 16 31 17 14 36 -19 21 -24
23 -24 12z"/>
<path d="M754 791 c-25 -15 -64 -69 -64 -88 0 -2 19 6 42 18 40 20 41 22 20
30 -32 12 -27 20 8 13 27 -6 30 -4 30 20 0 31 3 31 -36 7z"/>
<path d="M657 751 c-36 -17 -37 -18 -18 -35 23 -21 36 -15 56 25 18 33 14 34
-38 10z"/>
<path d="M730 708 c-39 -18 -42 -21 -25 -28 40 -17 63 -11 69 16 4 15 6 28 4
29 -2 1 -23 -6 -48 -17z"/>
<path d="M588 695 c-24 -33 -23 -44 9 -56 24 -9 30 -7 46 12 22 28 18 32 -22
18 -18 -6 -34 -9 -37 -6 -3 3 8 8 25 12 34 7 38 14 19 33 -16 16 -20 15 -40
-13z"/>
<path d="M656 652 l-19 -25 26 7 c15 3 39 8 55 11 22 4 20 2 -8 -9 -28 -11
-31 -15 -18 -21 27 -11 53 -1 53 19 0 13 -12 23 -35 31 -33 11 -37 11 -54 -13z"/>
<path d="M310 570 c0 -5 5 -10 10 -10 6 0 10 5 10 10 0 6 -4 10 -10 10 -5 0
-10 -4 -10 -10z"/>
<path d="M390 570 c0 -5 5 -10 10 -10 6 0 10 5 10 10 0 6 -4 10 -10 10 -5 0
-10 -4 -10 -10z"/>
<path d="M302 498 c-17 -17 -15 -73 3 -88 22 -18 62 -4 69 24 14 56 -36 100
-72 64z"/>
<path d="M695 460 c-4 -6 5 -10 20 -10 15 0 24 4 20 10 -3 6 -12 10 -20 10 -8
0 -17 -4 -20 -10z"/>
<path d="M975 460 c-4 -6 5 -10 20 -10 15 0 24 4 20 10 -3 6 -12 10 -20 10 -8
0 -17 -4 -20 -10z"/>
</g>
</svg>
